<?xml version="1.0" standalone="no"?><!DOCTYPE svg PUBLIC "-//W3C//DTD SVG 1.1//EN" "http://www.w3.org/Graphics/SVG/1.1/DTD/svg11.dtd"><svg t="1551165971016" class="icon" style="" viewBox="0 0 1024 1024" version="1.1" xmlns="http://www.w3.org/2000/svg" p-id="3917" xmlns:xlink="http://www.w3.org/1999/xlink" width="200" height="200"><defs><style type="text/css"></style></defs><path d="M551.903 202.24l304.142 574.49c22.05 41.651 1.725 75.421-45.403 75.421H213.306c-47.132 0-67.455-33.767-45.403-75.422l304.142-574.49c22.05-41.651 57.806-41.654 79.858 0z m-39.93 428.21c23.553 0 42.668-19.114 42.668-42.666V374.451c0-23.552-19.115-42.667-42.667-42.667-23.552 0-42.667 19.115-42.667 42.667v213.333c0 23.552 19.115 42.667 42.667 42.667z m0 128c23.553 0 42.668-19.114 42.668-42.666 0-23.552-19.115-42.666-42.667-42.666-23.552 0-42.667 19.114-42.667 42.666 0 23.552 19.115 42.667 42.667 42.667z" p-id="3918"></path></svg>