<?xml version="1.0" standalone="no"?><!DOCTYPE svg PUBLIC "-//W3C//DTD SVG 1.1//EN" "http://www.w3.org/Graphics/SVG/1.1/DTD/svg11.dtd"><svg class="icon" width="200px" height="200.00px" viewBox="0 0 1024 1024" version="1.1" xmlns="http://www.w3.org/2000/svg"><path fill="#2c2c2c" d="M170.667 213.334c0-23.564 19.101-42.667 42.667-42.667h85.332c23.564 0 42.667 19.101 42.667 42.667v85.332c0 23.564-19.101 42.667-42.667 42.667h-85.332c-23.564 0-42.667-19.101-42.667-42.667v-85.332z m0 256c0-23.564 19.101-42.667 42.667-42.667h85.332c23.564 0 42.667 19.101 42.667 42.667v85.332c0 23.564-19.101 42.667-42.667 42.667h-85.332c-23.564 0-42.667-19.101-42.667-42.667v-85.332z m256-256c0-23.564 19.101-42.667 42.667-42.667h85.332c23.564 0 42.667 19.101 42.667 42.667v85.332c0 23.564-19.101 42.667-42.667 42.667h-85.332c-23.564 0-42.667-19.101-42.667-42.667v-85.332z m0 256c0-23.564 19.101-42.667 42.667-42.667h85.332c23.564 0 42.667 19.101 42.667 42.667v85.332c0 23.564-19.101 42.667-42.667 42.667h-85.332c-23.564 0-42.667-19.101-42.667-42.667v-85.332z m256-256c0-23.564 19.101-42.667 42.667-42.667h85.332c23.564 0 42.667 19.101 42.667 42.667v85.332c0 23.564-19.101 42.667-42.667 42.667h-85.332c-23.564 0-42.667-19.101-42.667-42.667v-85.332z m0 256c0-23.564 19.101-42.667 42.667-42.667h85.332c23.564 0 42.667 19.101 42.667 42.667v85.332c0 23.564-19.101 42.667-42.667 42.667h-85.332c-23.564 0-42.667-19.101-42.667-42.667v-85.332z m-512 256c0-23.564 19.101-42.667 42.667-42.667h85.332c23.564 0 42.667 19.101 42.667 42.667v85.332c0 23.564-19.101 42.667-42.667 42.667h-85.332c-23.564 0-42.667-19.101-42.667-42.667v-85.332z m256 0c0-23.564 19.101-42.667 42.667-42.667h85.332c23.564 0 42.667 19.101 42.667 42.667v85.332c0 23.564-19.101 42.667-42.667 42.667h-85.332c-23.564 0-42.667-19.101-42.667-42.667v-85.332z m256 0c0-23.564 19.101-42.667 42.667-42.667h85.332c23.564 0 42.667 19.101 42.667 42.667v85.332c0 23.564-19.101 42.667-42.667 42.667h-85.332c-23.564 0-42.667-19.101-42.667-42.667v-85.332z" /></svg>