<?xml version="1.0" standalone="no"?><!DOCTYPE svg PUBLIC "-//W3C//DTD SVG 1.1//EN" "http://www.w3.org/Graphics/SVG/1.1/DTD/svg11.dtd"><svg class="icon" width="200px" height="200.00px" viewBox="0 0 1024 1024" version="1.1" xmlns="http://www.w3.org/2000/svg"><path fill="#505F79" d="M768 213.333h42.88c47.019 0 85.12 38.187 85.12 85.078v512.512C896 857.899 857.941 896 810.88 896H213.12c-47.019 0-85.12-38.144-85.12-85.077V298.41c0-46.976 38.059-85.078 85.12-85.078H256v-42.666C256 147.115 275.115 128 298.667 128c23.552 0 42.666 19.115 42.666 42.667v42.666h341.334v-42.666c0-23.552 19.114-42.667 42.666-42.667C748.885 128 768 147.115 768 170.667v42.666zM224 755.968c0 23.68 18.944 42.496 42.368 42.496h491.307c23.125 0 42.325-19.03 42.325-42.496V408.363H224v347.605z m74.667-201.301V469.29H384v85.376h-85.333z m341.333 0V469.29h85.333v85.376H640z m-170.667 0V469.29h85.376v85.376h-85.376zM298.667 725.333V640H384v85.333h-85.333z m170.666 0V640h85.376v85.333h-85.376z m170.667 0V640h85.333v85.333H640z"  /></svg>