<?xml version="1.0" encoding="UTF-8"?>
<svg width="24px" height="24px" viewBox="0 0 24 24" version="1.1" xmlns="http://www.w3.org/2000/svg" xmlns:xlink="http://www.w3.org/1999/xlink">
    <g id="icon/icon_case" stroke="none" stroke-width="1" fill="none" fill-rule="evenodd">
        <path d="M23.5862687,6.49072342 C23.8179104,6.64595745 23.8179104,6.99523407 23.5862687,7.1504681 L12.3902487,13.5926809 C12.2358209,13.7091064 12.0041791,13.7091064 11.8497513,13.5926809 L0.653731341,7.1504681 C0.422089553,6.99523407 0.422089553,6.64595745 0.653731341,6.49072342 L11.8883582,0.0873191478 C12.0427861,-0.0291063826 12.2744279,-0.0291063826 12.4288557,0.0873191478 L23.5862687,6.49072342 Z M0,10.1944689 C0,9.91900888 0.308681677,9.76160317 0.540192928,9.87965746 L11.807074,16.4513463 C11.9614148,16.5300492 12.1543408,16.5300492 12.3086817,16.4513463 L23.4983923,9.87965746 C23.7299035,9.76160317 24,9.9190089 24,10.1944689 L24,11.8865804 C24,12.0439861 23.9228296,12.1620404 23.807074,12.2407433 L12.5401929,18.8124321 C12.1929261,19.0091893 11.807074,19.0091893 11.4598071,18.8124321 L0.192926051,12.2407433 C0.0771704256,12.1620404 0,12.0439861 0,11.8865804 L0,10.1944689 Z M0,14.7544689 C0,14.4790089 0.3081862,14.3216032 0.539325844,14.4396575 L11.788122,21.0113463 C11.9422151,21.0900492 12.1348315,21.0900492 12.2889245,21.0113463 L23.4991974,14.4396575 C23.7303371,14.3216032 24,14.4790089 24,14.7544689 L24,16.4465804 C24,16.6039861 23.9229534,16.7220404 23.8073836,16.8007433 L12.5200642,23.3724321 C12.1733547,23.5691893 11.788122,23.5691893 11.4414125,23.3724321 L0.192616378,16.8007433 C0.0770465565,16.7220404 0,16.6039861 0,16.4465804 L0,14.7544689 Z" id="Combined-Shape" fill="#FFFFFF" fill-rule="nonzero"></path>
    </g>
</svg>