<?xml version="1.0" standalone="no"?><!DOCTYPE svg PUBLIC "-//W3C//DTD SVG 1.1//EN" "http://www.w3.org/Graphics/SVG/1.1/DTD/svg11.dtd"><svg class="icon" width="200px" height="200.00px" viewBox="0 0 1024 1024" version="1.1" xmlns="http://www.w3.org/2000/svg"><path fill="#505F79" d="M512 896c-212.077 0-384-171.923-384-384s171.923-384 384-384 384 171.923 384 384-171.923 384-384 384z m-97.83-414.17c-16.662-16.662-43.678-16.662-60.34 0-16.662 16.662-16.662 43.678 0 60.34l85.333 85.333c16.663 16.663 43.678 16.663 60.34 0L670.17 456.837c16.662-16.663 16.662-43.678 0-60.34-16.662-16.663-43.678-16.663-60.34 0L469.333 536.994 414.17 481.83z" /></svg>