<?xml version="1.0" standalone="no"?><!DOCTYPE svg PUBLIC "-//W3C//DTD SVG 1.1//EN" "http://www.w3.org/Graphics/SVG/1.1/DTD/svg11.dtd"><svg t="1559103010434" class="icon" style="" viewBox="0 0 1024 1024" version="1.1" xmlns="http://www.w3.org/2000/svg" p-id="4342" xmlns:xlink="http://www.w3.org/1999/xlink" width="200" height="200"><defs><style type="text/css"></style></defs><path d="M287.374 525.751c-15.97-17.327-42.962-18.428-60.29-2.459-17.327 15.97-18.428 42.963-2.458 60.29l154.116 167.222c22.935 22.447 57.075 22.447 78.267 1.255 2.613-2.566 2.613-2.566 15.54-15.28a99679.158 99679.158 0 0 0 41.651-40.992 87510.31 87510.31 0 0 0 126.396-124.704l1.72-1.701c71.458-70.664 125.7-124.64 156.06-155.42 16.548-16.776 16.362-43.79-0.414-60.338-16.776-16.548-43.79-16.362-60.338 0.414-30.03 30.444-84.104 84.253-155.31 154.668l-1.718 1.7a87427.75 87427.75 0 0 1-126.27 124.58 101455.424 101455.424 0 0 1-34.79 34.243L287.374 525.751z" fill="#57D9A3" p-id="4343"></path></svg>