<?xml version="1.0" standalone="no"?><!DOCTYPE svg PUBLIC "-//W3C//DTD SVG 1.1//EN" "http://www.w3.org/Graphics/SVG/1.1/DTD/svg11.dtd"><svg class="icon" width="200px" height="200.00px" viewBox="0 0 1024 1024" version="1.1" xmlns="http://www.w3.org/2000/svg"><path fill="#505F79" d="M512 451.66l225.83-225.83c16.662-16.662 43.678-16.662 60.34 0 16.662 16.662 16.662 43.678 0 60.34L572.34 512l225.83 225.83c16.662 16.662 16.662 43.678 0 60.34-16.662 16.662-43.678 16.662-60.34 0L512 572.34 286.17 798.17c-16.662 16.662-43.678 16.662-60.34 0-16.662-16.662-16.662-43.678 0-60.34L451.66 512 225.83 286.17c-16.662-16.662-16.662-43.678 0-60.34 16.662-16.662 43.678-16.662 60.34 0L512 451.66z"  /></svg>