<?xml version="1.0" standalone="no"?><!DOCTYPE svg PUBLIC "-//W3C//DTD SVG 1.1//EN" "http://www.w3.org/Graphics/SVG/1.1/DTD/svg11.dtd"><svg class="icon" width="200px" height="200.00px" viewBox="0 0 1024 1024" version="1.1" xmlns="http://www.w3.org/2000/svg"><path  d="M376.717 725.333h270.566C664.855 675.618 712.268 640 768 640c70.692 0 128 57.308 128 128 0 70.692-57.308 128-128 128-55.732 0-103.145-35.618-120.717-85.333H376.717C359.145 860.382 311.732 896 256 896c-70.692 0-128-57.308-128-128 0-70.692 57.308-128 128-128 55.732 0 103.145 35.618 120.717 85.333zM192 128h554.667c35.346 0 64 28.654 64 64 0 35.346-28.654 64-64 64H192c-35.346 0-64-28.654-64-64 0-35.346 28.654-64 64-64z m213.333 256H832c35.346 0 64 28.654 64 64 0 35.346-28.654 64-64 64H405.333c-35.346 0-64-28.654-64-64 0-35.346 28.654-64 64-64z" /></svg>