<?xml version="1.0" standalone="no"?><!DOCTYPE svg PUBLIC "-//W3C//DTD SVG 1.1//EN" "http://www.w3.org/Graphics/SVG/1.1/DTD/svg11.dtd"><svg class="icon" width="200px" height="200.00px" viewBox="0 0 1024 1024" version="1.1" xmlns="http://www.w3.org/2000/svg"><path fill="#505F79" d="M128 810.662V512h85.333v298.667h597.334V512H896v298.662c0 47.13-38.2 85.338-85.332 85.338H213.332C166.204 896 128 857.803 128 810.662z m341.333-234.258V169.66c0-23.038 19.148-41.66 42.688-41.66 23.54 0 42.646 18.622 42.646 41.66v406.755l51.942-51.457c17.387-17.277 45.608-17.277 63.04 0 8.693 8.572 13.018 19.928 13.018 31.196 0 11.311-4.325 22.623-13.018 31.284L543.525 712.442c-17.431 17.188-45.607 17.188-63.04 0L354.408 587.438c-17.432-17.277-17.432-45.247 0-62.48 17.387-17.277 45.652-17.277 62.995 0l51.931 51.446z" /></svg>