<?xml version="1.0" standalone="no"?><!DOCTYPE svg PUBLIC "-//W3C//DTD SVG 1.1//EN" "http://www.w3.org/Graphics/SVG/1.1/DTD/svg11.dtd"><svg class="icon" width="200px" height="200.00px" viewBox="0 0 1024 1024" version="1.1" xmlns="http://www.w3.org/2000/svg"><path fill="#505F79" d="M213.333 298.667v426.666h597.334V298.667H213.333z m597.334-85.334c46.933 0 85.333 38.4 85.333 85.334v426.666c0 46.934-38.4 85.334-85.333 85.334H213.333c-46.933 0-85.333-38.4-85.333-85.334V298.667c0-46.934 38.4-85.334 85.333-85.334h597.334z"  /><path fill="#505F79" d="M234.577 277.333l241.97 242.003c18.665 18.663 48.875 18.663 67.539 0l242.013-242.003h101.236c-6.342 18.785-16.996 36.432-31.962 51.398l-250.94 250.943c-51.989 51.99-136.27 51.99-188.171 0L165.278 328.731c-14.979-14.966-25.642-32.613-31.99-51.398h101.29z"  /></svg>