<?xml version="1.0" standalone="no"?><!DOCTYPE svg PUBLIC "-//W3C//DTD SVG 1.1//EN" "http://www.w3.org/Graphics/SVG/1.1/DTD/svg11.dtd"><svg class="icon" width="200px" height="200.00px" viewBox="0 0 1024 1024" version="1.1" xmlns="http://www.w3.org/2000/svg"><path fill="#505F79" d="M572.343 188.359l263.314 263.324c33.322 33.323 33.326 87.36 0 120.684L572.343 835.661c-33.322 33.32-87.36 33.324-120.686 0L188.343 572.367c-33.322-33.32-33.326-87.356 0-120.684l263.314-263.324c33.322-33.324 87.36-33.328 120.686 0zM512 597.333c23.552 0 42.667-19.114 42.667-42.666V341.333c0-23.552-19.115-42.666-42.667-42.666-23.552 0-42.667 19.114-42.667 42.666v213.334c0 23.552 19.115 42.666 42.667 42.666z m0 128c23.552 0 42.667-19.114 42.667-42.666C554.667 659.115 535.552 640 512 640c-23.552 0-42.667 19.115-42.667 42.667 0 23.552 19.115 42.666 42.667 42.666z"  /></svg>