<?xml version="1.0" standalone="no"?><!DOCTYPE svg PUBLIC "-//W3C//DTD SVG 1.1//EN" "http://www.w3.org/Graphics/SVG/1.1/DTD/svg11.dtd"><svg class="icon" width="200px" height="200.00px" viewBox="0 0 1024 1024" version="1.1" xmlns="http://www.w3.org/2000/svg"><path fill="#2c2c2c" d="M824.925212 909.049675c0 62.723662-50.849789 113.63071-113.629378 113.63071H143.146278c-62.780921 0-113.629378-50.907048-113.629378-113.63071V113.641363C29.5169 50.860442 80.365358 0.011984 143.146278 0.011984h299.6991a113.6893 113.6893 0 0 1 72.835829 26.361675l288.279303 240.667964a56.91123 56.91123 0 0 1 20.396109 43.633852v29.601456h-255.6671c-47.098674 0-85.222367-38.123693-85.222367-85.222367V113.640031H143.146278v795.408312h568.149556l113.629378-0.010652v0.010652zM797.054835 681.778934H369.065446c-30.621462 0-55.474434-25.440208-55.474434-56.78606 0-31.345852 24.852973-56.843319 55.474434-56.843319h428.005368l-68.521446-69.167272c-23.006044-23.15252-23.006044-60.731589 0-83.944031 11.415802-11.575594 26.537446-17.33343 41.540577-17.33343 15.063053 0 30.126107 5.757836 41.657759 17.334762L978.205628 582.984905c22.887532 23.212442 22.887532 60.731589 0 83.944031L811.747704 834.813004c-23.006044 23.212442-60.250882 23.212442-83.198336 0-23.006044-23.15252-23.006044-60.790179 0-83.884109L797.056166 681.778934z" /></svg>