<?xml version="1.0" standalone="no"?><!DOCTYPE svg PUBLIC "-//W3C//DTD SVG 1.1//EN" "http://www.w3.org/Graphics/SVG/1.1/DTD/svg11.dtd"><svg class="icon" width="200px" height="200.00px" viewBox="0 0 1024 1024" version="1.1" xmlns="http://www.w3.org/2000/svg"><path d="M329.143 308.706c0 99.801 81.868 180.706 182.857 180.706 100.99 0 182.857-80.905 182.857-180.706C694.857 208.905 612.99 128 512 128c-100.99 0-182.857 80.905-182.857 180.706z" fill="#FF8F73" /><path d="M232.254 896h559.492c16.184 0 29.304-13.12 29.304-29.304 0-3.056-0.479-6.094-1.418-9.003L751.04 645.241a29.304 29.304 0 0 0-27.886-20.3H300.846c-12.715 0-23.98 8.2-27.886 20.3l-68.592 212.452c-4.973 15.401 3.482 31.917 18.883 36.89a29.304 29.304 0 0 0 9.003 1.417z" fill="#FFBDAD" /></svg>