<?xml version="1.0" standalone="no"?><!DOCTYPE svg PUBLIC "-//W3C//DTD SVG 1.1//EN" "http://www.w3.org/Graphics/SVG/1.1/DTD/svg11.dtd"><svg class="icon" width="200px" height="200.00px" viewBox="0 0 1024 1024" version="1.1" xmlns="http://www.w3.org/2000/svg"><path  d="M896 725.333c23.564 0 42.667 19.103 42.667 42.667S919.564 810.667 896 810.667H213.124c-70.61 0-127.79-57.619-127.79-128.364V256c0-23.564 19.102-42.667 42.666-42.667 23.564 0 42.667 19.103 42.667 42.667v426.303c0 23.762 19.121 43.03 42.457 43.03H896zM707.66 384H640c-23.564 0-42.667-19.103-42.667-42.667s19.103-42.666 42.667-42.666h170.667c23.564 0 42.666 19.102 42.666 42.666V512c0 23.564-19.102 42.667-42.666 42.667C787.103 554.667 768 535.564 768 512v-67.66L627.503 584.837c-16.662 16.662-43.677 16.662-60.34 0l-97.83-97.83-140.496 140.496c-16.663 16.663-43.678 16.663-60.34 0-16.663-16.662-16.663-43.677 0-60.34l170.666-170.666c16.663-16.663 43.678-16.663 60.34 0l97.83 97.83L707.66 384z" /></svg>