<?xml version="1.0" standalone="no"?><!DOCTYPE svg PUBLIC "-//W3C//DTD SVG 1.1//EN" "http://www.w3.org/Graphics/SVG/1.1/DTD/svg11.dtd"><svg class="icon" width="200px" height="200.00px" viewBox="0 0 1024 1024" version="1.1" xmlns="http://www.w3.org/2000/svg"><path fill="#2c2c2c" d="M426.667 298.667h170.666v-48c0-20.608 19.115-37.334 42.667-37.334 23.552 0 42.667 16.726 42.667 37.334v48h61.795c36.57 0 66.205 28.64 66.205 63.808v384.384c0 35.232-29.602 63.808-66.205 63.808H279.538c-36.57 0-66.205-28.608-66.205-63.808V362.475c0-35.232 29.602-63.808 66.205-63.808h61.795v-48c0-20.608 19.115-37.334 42.667-37.334 23.552 0 42.667 16.726 42.667 37.334v48z m-128 394.13c0 18.13 14.032 32.536 31.383 32.536h363.931c17.13 0 31.352-14.569 31.352-32.535V426.667H298.667v266.13z m42.666-138.13v-85.334h85.334v85.334h-85.334z m256 0v-85.334h85.334v85.334h-85.334z m-128 0v-85.334h85.334v85.334h-85.334z m-128 128v-85.334h85.334v85.334h-85.334z m128 0v-85.334h85.334v85.334h-85.334z m128 0v-85.334h85.334v85.334h-85.334z" /></svg>