<?xml version="1.0" standalone="no"?><!DOCTYPE svg PUBLIC "-//W3C//DTD SVG 1.1//EN" "http://www.w3.org/Graphics/SVG/1.1/DTD/svg11.dtd"><svg class="icon" width="200px" height="200.00px" viewBox="0 0 1024 1024" version="1.1" xmlns="http://www.w3.org/2000/svg"><path fill="#2c2c2c" d="M682.667 725.184h85.06c0.203 0 0.273-426.517 0.273-426.517 0 0.165-255.727 0.15-255.727 0.15-0.203 0-0.273 426.367-0.273 426.367h85.333V640h85.334v85.184z m-256-445.643c0-36.566 32.069-66.208 71.414-66.208H781.92c39.441 0 71.414 29.622 71.414 66.208v464.918c0 36.566-32.069 66.208-71.414 66.208H426.667V279.54zM384 384.098c-37.183 0.026-85.197 0.022-85.197 0.022-0.101 0-0.136 341.094-0.136 341.094H384v85.453h-85.333c-47.129 0-85.334-38.205-85.334-85.334V384c0-47.128 38.205-85.333 85.334-85.333H384v85.43zM554.667 384h42.666v42.667h-42.666V384z m-213.334 42.667H384v42.666h-42.667v-42.666z m0 85.333H384v42.667h-42.667V512z m0 85.333H384V640h-42.667v-42.667z m213.334-128h42.666V512h-42.666v-42.667z m0 85.334h42.666v42.666h-42.666v-42.666z m128-170.667h42.666v42.667h-42.666V384z m0 85.333h42.666V512h-42.666v-42.667z m0 85.334h42.666v42.666h-42.666v-42.666z" /></svg>