<?xml version="1.0" standalone="no"?><!DOCTYPE svg PUBLIC "-//W3C//DTD SVG 1.1//EN" "http://www.w3.org/Graphics/SVG/1.1/DTD/svg11.dtd"><svg class="icon" width="200px" height="200.00px" viewBox="0 0 1024 1024" version="1.1" xmlns="http://www.w3.org/2000/svg"><path fill="#2c2c2c" d="M128 452.718L518.137 85.333 896 452.718v400.615c0 47.129-38.205 85.334-85.333 85.334H213.333c-47.128 0-85.333-38.205-85.333-85.334V452.718z m345.333 105.949h-72c-33.137 0-60 26.863-60 60s26.863 60 60 60h72v72c0 33.137 26.863 60 60 60s60-26.863 60-60v-72h72c33.137 0 60-26.863 60-60s-26.863-60-60-60h-72v-72c0-33.137-26.863-60-60-60s-60 26.863-60 60v72z" /></svg>