<?xml version="1.0" standalone="no"?><!DOCTYPE svg PUBLIC "-//W3C//DTD SVG 1.1//EN" "http://www.w3.org/Graphics/SVG/1.1/DTD/svg11.dtd"><svg class="icon" width="200px" height="200.00px" viewBox="0 0 1024 1024" version="1.1" xmlns="http://www.w3.org/2000/svg"><path fill="#505F79" d="M128 213.332C128 166.204 166.2 128 213.332 128h597.336C857.796 128 896 166.2 896 213.332v597.336C896 857.796 857.8 896 810.668 896H213.332C166.204 896 128 857.8 128 810.668V213.332zM448 704l-64-64-128 128h512V652.8L640 512 448 704zM341.333 426.667c47.129 0 85.334-38.205 85.334-85.334 0-47.128-38.205-85.333-85.334-85.333C294.205 256 256 294.205 256 341.333c0 47.129 38.205 85.334 85.333 85.334z"  /></svg>