<?xml version="1.0" standalone="no"?><!DOCTYPE svg PUBLIC "-//W3C//DTD SVG 1.1//EN" "http://www.w3.org/Graphics/SVG/1.1/DTD/svg11.dtd"><svg class="icon" width="200px" height="200.00px" viewBox="0 0 1024 1024" version="1.1" xmlns="http://www.w3.org/2000/svg"><path fill="#505F79" d="M160 512c0-194.421 157.579-352 352-352s352 157.579 352 352-157.579 352-352 352-352-157.579-352-352z m70.4 0c0 155.54 126.06 281.6 281.6 281.6 155.54 0 281.6-126.06 281.6-281.6 0-155.54-126.06-281.6-281.6-281.6-155.54 0-281.6 126.06-281.6 281.6z m246.4-35.097c0-19.497 15.624-35.303 35.2-35.303 19.44 0 35.2 15.413 35.2 35.303v175.794C547.2 672.194 531.576 688 512 688c-19.44 0-35.2-15.413-35.2-35.303V476.903zM512 406.4c-19.44 0-35.2-15.76-35.2-35.2 0-19.44 15.76-35.2 35.2-35.2 19.44 0 35.2 15.76 35.2 35.2 0 19.44-15.76 35.2-35.2 35.2z" /></svg>