<?xml version="1.0" standalone="no"?><!DOCTYPE svg PUBLIC "-//W3C//DTD SVG 1.1//EN" "http://www.w3.org/Graphics/SVG/1.1/DTD/svg11.dtd"><svg t="1551753011407" class="icon" style="" viewBox="0 0 1024 1024" version="1.1" xmlns="http://www.w3.org/2000/svg" p-id="1496" xmlns:xlink="http://www.w3.org/1999/xlink" width="32" height="32"><defs><style type="text/css"></style></defs><path d="M213.333 213.333v597.334h597.334V213.333H213.333z m0-85.333h597.334C857.795 128 896 166.205 896 213.333v597.334C896 857.795 857.795 896 810.667 896H213.333C166.205 896 128 857.795 128 810.667V213.333C128 166.205 166.205 128 213.333 128z" fill="#505F79" p-id="1497"></path><path d="M341.333 298.667h85.334c23.564 0 42.666 19.102 42.666 42.666v85.334c0 23.564-19.102 42.666-42.666 42.666h-85.334c-23.564 0-42.666-19.102-42.666-42.666v-85.334c0-23.564 19.102-42.666 42.666-42.666z m0 256h85.334c23.564 0 42.666 19.102 42.666 42.666v85.334c0 23.564-19.102 42.666-42.666 42.666h-85.334c-23.564 0-42.666-19.102-42.666-42.666v-85.334c0-23.564 19.102-42.666 42.666-42.666z m256-256h85.334c23.564 0 42.666 19.102 42.666 42.666v85.334c0 23.564-19.102 42.666-42.666 42.666h-85.334c-23.564 0-42.666-19.102-42.666-42.666v-85.334c0-23.564 19.102-42.666 42.666-42.666z m0 256h85.334c23.564 0 42.666 19.102 42.666 42.666v85.334c0 23.564-19.102 42.666-42.666 42.666h-85.334c-23.564 0-42.666-19.102-42.666-42.666v-85.334c0-23.564 19.102-42.666 42.666-42.666z"  p-id="1498"></path></svg>