<?xml version="1.0" standalone="no"?><!DOCTYPE svg PUBLIC "-//W3C//DTD SVG 1.1//EN" "http://www.w3.org/Graphics/SVG/1.1/DTD/svg11.dtd"><svg class="icon" width="200px" height="200.00px" viewBox="0 0 1024 1024" version="1.1" xmlns="http://www.w3.org/2000/svg"><path fill="#505F79" d="M256 682.667h512V469.333h85.333V810.67c0 47.127-38.196 85.331-85.338 85.331h-511.99c-47.131 0-85.338-38.201-85.338-85.33V469.332H256v213.334z m-61.605-516.79c10.46-20.92 38.136-37.877 61.897-37.877h511.416c23.725 0 51.453 16.988 61.897 37.876L896 298.666H128l66.395-132.79zM128 298.666h768v42.666H128v-42.666z m576 42.666h192c-5.978 48.113-46.68 85.334-96 85.334s-90.022-37.221-96-85.334z m-576 0h192c-5.978 48.113-46.68 85.334-96 85.334s-90.022-37.221-96-85.334z m192 0h192c-5.978 48.113-46.68 85.334-96 85.334s-90.022-37.221-96-85.334z m192 0h192c-5.978 48.113-46.68 85.334-96 85.334s-90.022-37.221-96-85.334z"  /></svg>