<?xml version="1.0" standalone="no"?><!DOCTYPE svg PUBLIC "-//W3C//DTD SVG 1.1//EN" "http://www.w3.org/Graphics/SVG/1.1/DTD/svg11.dtd"><svg class="icon" width="200px" height="200.00px" viewBox="0 0 1024 1024" version="1.1" xmlns="http://www.w3.org/2000/svg"><path fill="#2c2c2c" d="M938.667 579.765H758.519v-45.316c0-24.873-20.164-45.037-45.038-45.037-24.873 0-45.037 20.164-45.037 45.037v45.316H398.222v-45.316c0-24.873-20.164-45.037-45.037-45.037-24.873 0-45.037 20.164-45.037 45.037v45.316H128V353.882c0-49.9 40.328-90.353 90.074-90.353h90.074v-90.353c0-24.95 20.164-45.176 45.037-45.176h360.296c12.437 0 23.696 5.057 31.846 13.232 8.15 8.175 13.192 19.47 13.192 31.944v90.353h90.074c49.746 0 90.074 40.453 90.074 90.353v225.883z m0 90.353v135.53c0 49.9-40.328 90.352-90.074 90.352H218.074C168.328 896 128 855.548 128 805.647v-135.53h180.148v45.317c0 24.873 20.164 45.037 45.037 45.037 24.873 0 45.037-20.164 45.037-45.037v-45.316h270.222v45.316c0 24.873 20.164 45.037 45.037 45.037 24.874 0 45.038-20.164 45.038-45.037v-45.316h180.148zM398.222 263.529h270.222v-45.176H398.222v45.176z" /></svg>