<?xml version="1.0" encoding="UTF-8"?>
<svg width="1024px" height="1024px" viewBox="0 0 1024 1024" version="1.1" xmlns="http://www.w3.org/2000/svg" xmlns:xlink="http://www.w3.org/1999/xlink">
    <!-- Generator: Sketch 54.1 (76490) - https://sketchapp.com -->
    <title>icon/icon_mission-03 copy@1x</title>
    <desc>Created with Sketch.</desc>
    <g id="icon/icon_mission-03-copy" stroke="none" stroke-width="1" fill="none" fill-rule="evenodd">
        <g id="Group" transform="translate(42.666667, 0.000000)">
            <path d="M510.195382,22.2883901 L894.195382,231.742936 C921.609638,246.696166 938.666667,275.429451 938.666667,306.656691 L938.666667,717.343309 C938.666667,748.570549 921.609638,777.303834 894.195382,792.257064 L510.195382,1001.71161 C484.725303,1015.60438 453.941364,1015.60438 428.471285,1001.71161 L44.4712848,792.257064 C17.057029,777.303834 3.82423396e-15,748.570549 0,717.343309 L2.84217094e-14,306.656691 C2.45974755e-14,275.429451 17.057029,246.696166 44.4712848,231.742936 L428.471285,22.2883901 C453.941364,8.39561971 484.725303,8.39561971 510.195382,22.2883901 Z" id="Polygon" fill="#505F79"></path>
            <path d="M595.333333,644.666667 L566,644.666667 L566,725.333333 L463.333333,725.333333 L463.333333,644.666667 L340.666667,644.666667 L340.677083,566 L430.010417,266.666667 L566,266.666667 L566,566 L595.333333,566 L595.333333,644.666667 Z M463.333333,566 L463.458333,371.375 L417.21875,565.96875 L463.333333,566 Z" id="4" fill="#FFFFFF" fill-rule="nonzero"></path>
        </g>
    </g>
</svg>