<?xml version="1.0" standalone="no"?><!DOCTYPE svg PUBLIC "-//W3C//DTD SVG 1.1//EN" "http://www.w3.org/Graphics/SVG/1.1/DTD/svg11.dtd"><svg t="1556020458592" class="icon" style="" viewBox="0 0 1024 1024" version="1.1" xmlns="http://www.w3.org/2000/svg" p-id="2165" xmlns:xlink="http://www.w3.org/1999/xlink" width="200" height="200"><defs><style type="text/css"></style></defs><path d="M552.862 22.288l384 209.455a85.333 85.333 0 0 1 44.471 74.914v410.686a85.333 85.333 0 0 1-44.471 74.914l-384 209.455a85.333 85.333 0 0 1-81.724 0l-384-209.455a85.333 85.333 0 0 1-44.471-74.914V306.657a85.333 85.333 0 0 1 44.471-74.914l384-209.455a85.333 85.333 0 0 1 81.724 0z" fill="#505F79" p-id="2166"></path><path d="M634 603.667c0 28-1.778 50.444-5.333 67.333-3.556 16.889-10.667 31.555-21.334 44-19.555 23.111-48.888 34.667-88 34.667-41.333 0-72.666-8.334-94-25-21.333-16.667-32-41.445-32-74.334l-2-55.333v-16H494v72c0 18.667 5.778 28 17.333 28 8.89 0 14.334-4.444 16.334-13.333 2-8.89 3-25.556 3-50v-32c0-26.667-4.667-43.556-14-50.667-7.111-5.333-22.89-8-47.334-8v-66.667h6c24.89 0 40.334-2.444 46.334-7.333s9-18.889 9-42v-26c0-13.778-0.667-22.667-2-26.667-2.667-8-8-12-16-12-12.445 0-18.667 9.111-18.667 27.334V411H391.333v-26c0-42.667 8.778-71.889 26.334-87.667 17.555-15.778 48.11-23.666 91.666-23.666 40.89 0 71.222 9.666 91 29C620.111 322 630 352.777 630 395c0 26.222-4.222 46-12.667 59.333-5.777 9.334-15.777 18.223-30 26.667 20.445 8.444 33.334 20.778 38.667 37 5.333 16.222 8 44.778 8 85.667z" fill="#FFFFFF" p-id="2167"></path></svg>