<?xml version="1.0" standalone="no"?><!DOCTYPE svg PUBLIC "-//W3C//DTD SVG 1.1//EN" "http://www.w3.org/Graphics/SVG/1.1/DTD/svg11.dtd"><svg class="icon" width="200px" height="200.00px" viewBox="0 0 1024 1024" version="1.1" xmlns="http://www.w3.org/2000/svg"><path d="M552.862 22.288l384 209.455a85.333 85.333 0 0 1 44.471 74.914v410.686a85.333 85.333 0 0 1-44.471 74.914l-384 209.455a85.333 85.333 0 0 1-81.724 0l-384-209.455a85.333 85.333 0 0 1-44.471-74.914V306.657a85.333 85.333 0 0 1 44.471-74.914l384-209.455a85.333 85.333 0 0 1 81.724 0z" fill="#505F79" /><path d="M570.667 741h-114V454.333c0-16.444-3.445-28.11-10.334-35-6.889-6.889-20.11-10.333-39.666-10.333H390v-53.333c25.333-5.334 47.333-14.445 66-27.334 16-11.11 31.778-26.444 47.333-46h67.334V741z" fill="#FFFFFF" /></svg>