<?xml version="1.0" standalone="no"?><!DOCTYPE svg PUBLIC "-//W3C//DTD SVG 1.1//EN" "http://www.w3.org/Graphics/SVG/1.1/DTD/svg11.dtd"><svg class="icon" width="200px" height="200.00px" viewBox="0 0 1024 1024" version="1.1" xmlns="http://www.w3.org/2000/svg"><path d="M552.862 22.288l384 209.455a85.333 85.333 0 0 1 44.471 74.914v410.686a85.333 85.333 0 0 1-44.471 74.914l-384 209.455a85.333 85.333 0 0 1-81.724 0l-384-209.455a85.333 85.333 0 0 1-44.471-74.914V306.657a85.333 85.333 0 0 1 44.471-74.914l384-209.455a85.333 85.333 0 0 1 81.724 0z" fill="#505F79" /><path d="M632 393c0 24.445-5.111 50-15.333 76.667-8.445 21.778-23.111 50.444-44 86-20.89 35.555-42 71.11-63.334 106.666H622V741H395.333v-65.333c32-58.223 53.778-98.222 65.334-120 13.778-25.334 29.555-55.778 47.333-91.334 11.556-24.444 18.889-41.889 22-52.333 3.111-10.444 4.667-21.222 4.667-32.333 0-23.556-7.778-35.334-23.334-35.334-8.889 0-14.889 4.445-18 13.334-3.11 8.889-4.666 21.333-4.666 37.333v42.667h-93.334v-15.334c0-8.889 0.111-17.555 0.334-26 0.222-8.444 1-17.11 2.333-26 4.444-31.555 16.222-55.555 35.333-72 19.112-16.444 44.222-24.666 75.334-24.666 16 0 30.222 1.666 42.666 5 12.445 3.333 24 8.777 34.667 16.333 30.667 23.111 46 55.778 46 98z" fill="#FFFFFF" /></svg>