<?xml version="1.0" standalone="no"?><!DOCTYPE svg PUBLIC "-//W3C//DTD SVG 1.1//EN" "http://www.w3.org/Graphics/SVG/1.1/DTD/svg11.dtd"><svg t="1551678725920" class="icon" style="" viewBox="0 0 1024 1024" version="1.1" xmlns="http://www.w3.org/2000/svg" p-id="3530" xmlns:xlink="http://www.w3.org/1999/xlink" width="32" height="32"><defs><style type="text/css"></style></defs><path d="M213.333 597.333C166.205 597.333 128 559.128 128 512s38.205-85.333 85.333-85.333c47.129 0 85.334 38.205 85.334 85.333s-38.205 85.333-85.334 85.333z m298.667 0c-47.128 0-85.333-38.205-85.333-85.333s38.205-85.333 85.333-85.333 85.333 38.205 85.333 85.333-38.205 85.333-85.333 85.333z m298.667 0c-47.129 0-85.334-38.205-85.334-85.333s38.205-85.333 85.334-85.333C857.795 426.667 896 464.872 896 512s-38.205 85.333-85.333 85.333z" p-id="3531"></path></svg>