<?xml version="1.0" standalone="no"?><!DOCTYPE svg PUBLIC "-//W3C//DTD SVG 1.1//EN" "http://www.w3.org/Graphics/SVG/1.1/DTD/svg11.dtd"><svg class="icon" width="200px" height="200.00px" viewBox="0 0 1024 1024" version="1.1" xmlns="http://www.w3.org/2000/svg"><path fill="#505F79" d="M725.316 720.847c52.774-53.892 85.35-127.635 85.35-208.847 0-164.693-133.973-298.667-298.666-298.667-164.693 0-298.667 133.974-298.667 298.667 0 81.217 32.58 154.963 85.36 208.856v-59.143c0-58.923 47.743-106.667 106.666-106.667h213.29c58.88 0 106.667 47.744 106.667 106.667v59.134zM512 128c212.096 0 384 171.904 384 384S724.096 896 512 896 128 724.096 128 512s171.904-384 384-384z m0 384c-70.692 0-128-57.308-128-128 0-70.692 57.308-128 128-128 70.692 0 128 57.308 128 128 0 70.692-57.308 128-128 128z"  /></svg>