<?xml version="1.0" standalone="no"?><!DOCTYPE svg PUBLIC "-//W3C//DTD SVG 1.1//EN" "http://www.w3.org/Graphics/SVG/1.1/DTD/svg11.dtd"><svg class="icon" width="200px" height="200.00px" viewBox="0 0 1024 1024" version="1.1" xmlns="http://www.w3.org/2000/svg"><path fill="#505F79" d="M524.068 464.335c16.662 16.662 16.662 43.677 0 60.34L328.105 720.637c-16.495 16.495-43.239 16.495-59.734 0-16.495-16.495-16.495-43.239 0-59.733l166.4-166.4-166.4-166.4c-16.495-16.495-16.495-43.239 0-59.734 16.495-16.495 43.239-16.495 59.734 0l195.963 195.964z m213.333 0c16.663 16.662 16.663 43.677 0 60.34L541.438 720.637c-16.495 16.495-43.239 16.495-59.733 0-16.495-16.495-16.495-43.239 0-59.733l166.4-166.4-166.4-166.4c-16.495-16.495-16.495-43.239 0-59.734 16.494-16.495 43.238-16.495 59.733 0L737.4 464.335z"  /></svg>