<?xml version="1.0" standalone="no"?><!DOCTYPE svg PUBLIC "-//W3C//DTD SVG 1.1//EN" "http://www.w3.org/Graphics/SVG/1.1/DTD/svg11.dtd"><svg class="icon" width="200px" height="200.00px" viewBox="0 0 1024 1024" version="1.1" xmlns="http://www.w3.org/2000/svg"><path fill="#505F79" d="M598.557 644.668c22.097-41.621 67.026-102.39 100.342-135.722l31.05-31.063c43.932-43.907 50.421-112.56 16.52-163.657-8.078-12.177-30.55-32.607-36.637-36.644C688.488 263.43 663.519 256 638.036 256c-34.338 0-67.192 13.315-91.991 38.079L505.242 334.9c-33.314 33.33-94.496 77.432-136.653 98.507l-73.911 36.948 258.956 258.926 44.923-84.614z m-112.841-410.94c42.07-42.027 97.195-63.061 152.32-63.061 41.472 0 82.987 11.946 118.955 35.797 0.853-1.11 1.834-2.133 2.816-3.157 16.853-16.811 44.117-16.811 60.928 0 16.81 16.853 16.81 44.117 0 60.885a38.995 38.995 0 0 1-3.158 2.859C873.087 350.72 864 464.555 790.271 538.24l-31.023 31.037c-33.317 33.333-77.422 94.518-98.518 136.674l-64.422 128.737c-10.624 21.333-32.981 24.917-49.963 7.979L181.29 477.653c-16.938-16.938-13.141-39.424 7.979-50.005l128.764-64.369c42.158-21.074 103.34-65.178 136.662-98.514l31.022-31.037zM276.693 753.856c-33.322-33.323-33.322-87.381 0-120.704l120.704 120.704c-33.322 33.323-87.381 33.323-120.704 0z"  /></svg>