<?xml version="1.0" standalone="no"?><!DOCTYPE svg PUBLIC "-//W3C//DTD SVG 1.1//EN" "http://www.w3.org/Graphics/SVG/1.1/DTD/svg11.dtd"><svg width="200px" height="200.00px" viewBox="0 0 1024 1024" version="1.1" xmlns="http://www.w3.org/2000/svg"><path fill="#505F79" d="M810.303 810.667c0.27 0 0.364-597.543 0.364-597.543 0 0.231-340.97 0.21-340.97 0.21-0.27 0-0.364 597.333-0.364 597.333h340.97zM384 213.124C384 166.11 422.483 128 469.697 128h340.606C857.632 128 896 166.085 896 213.124v597.752C896 857.89 857.517 896 810.303 896H384V213.124zM341.333 256H213.697C166.483 256 128 297.054 128 347.696v456.608C128 854.992 166.368 896 213.697 896h234.121-106.485v-91.535c-68.951-0.045-128-0.102-128-0.161 0 0 0.196-456.875 0.364-456.875 0 0 58.841 0.021 127.636 0.056V256zM512 298.667h85.333V384H512v-85.333z m-256 128h85.333V512H256v-85.333z m0 128h85.333V640H256v-85.333z m256-128h85.333V512H512v-85.333z m0 128h85.333V640H512v-85.333z m85.333 128h85.334v128h-85.334v-128z m85.334-384H768V384h-85.333v-85.333z m0 128H768V512h-85.333v-85.333z m0 128H768V640h-85.333v-85.333z" /></svg>