<?xml version="1.0" standalone="no"?><!DOCTYPE svg PUBLIC "-//W3C//DTD SVG 1.1//EN" "http://www.w3.org/Graphics/SVG/1.1/DTD/svg11.dtd"><svg class="icon" width="200px" height="200.00px" viewBox="0 0 1024 1024" version="1.1" xmlns="http://www.w3.org/2000/svg"><path d="M128 256.004c0-47.13 38.2-85.337 85.332-85.337h597.336c47.128 0 85.332 38.195 85.332 85.337V597.33c0 47.13-38.2 85.337-85.332 85.337H213.332c-47.128 0-85.332-38.196-85.332-85.337V256.004z m85.333 341.33h597.334V256H213.333v341.333z m384 256h21.336c11.78 0 21.331 9.548 21.331 21.333V896H384v-21.333c0-11.782 9.549-21.334 21.331-21.334h21.336v-128h170.666v128z" /></svg>