<?xml version="1.0" standalone="no"?><!DOCTYPE svg PUBLIC "-//W3C//DTD SVG 1.1//EN" "http://www.w3.org/Graphics/SVG/1.1/DTD/svg11.dtd"><svg class="icon" viewBox="0 0 1024 1024" version="1.1" xmlns="http://www.w3.org/2000/svg"><path fill="#505F79" d="M512 512a128 128 0 1 1 0-256 128 128 0 0 1 0 256z m-165.290667-85.333333a170.666667 170.666667 0 0 0 52.394667 85.333333H384c-70.442667 0-128 57.216-128 127.829333v126.421334c-90.709333-7.509333-170.666667-39.210667-170.666667-95.146667V512C85.333333 464.896 123.178667 426.666667 170.666667 426.666667h176.042666z m330.581334 0H853.333333c47.146667 0 85.333333 37.76 85.333334 85.333333v159.146667c0 55.893333-79.957333 87.594667-170.666667 95.146666v-126.464A128 128 0 0 0 640 512h-15.104a170.666667 170.666667 0 0 0 52.394667-85.333333zM425.258667 236.970667a170.624 170.624 0 0 0-83.754667 139.690666 128 128 0 1 1 83.754667-139.690666z m257.28 139.690666a170.410667 170.410667 0 0 0-83.797334-139.733333 128 128 0 1 1 83.797334 139.733333zM298.666667 640c0-47.146667 37.845333-85.333333 85.333333-85.333333h256c47.146667 0 85.333333 37.76 85.333333 85.333333v159.146667c0 129.152-426.666667 129.152-426.666666 0V640z" /></svg>