<?xml version="1.0" standalone="no"?><!DOCTYPE svg PUBLIC "-//W3C//DTD SVG 1.1//EN" "http://www.w3.org/Graphics/SVG/1.1/DTD/svg11.dtd"><svg class="icon" width="200px" height="200.00px" viewBox="0 0 1024 1024" version="1.1" xmlns="http://www.w3.org/2000/svg"><path fill="#505F79" d="M256 170.667c47.128 0 85.333 38.205 85.333 85.333S303.128 341.333 256 341.333 170.667 303.128 170.667 256s38.205-85.333 85.333-85.333z m256 0c47.128 0 85.333 38.205 85.333 85.333S559.128 341.333 512 341.333 426.667 303.128 426.667 256s38.205-85.333 85.333-85.333z m-256 256c47.128 0 85.333 38.205 85.333 85.333S303.128 597.333 256 597.333 170.667 559.128 170.667 512s38.205-85.333 85.333-85.333z m0 256c47.128 0 85.333 38.205 85.333 85.333S303.128 853.333 256 853.333 170.667 815.128 170.667 768s38.205-85.333 85.333-85.333z m256-256c47.128 0 85.333 38.205 85.333 85.333S559.128 597.333 512 597.333 426.667 559.128 426.667 512s38.205-85.333 85.333-85.333z m0 256c47.128 0 85.333 38.205 85.333 85.333S559.128 853.333 512 853.333 426.667 815.128 426.667 768s38.205-85.333 85.333-85.333z m256 0c47.128 0 85.333 38.205 85.333 85.333S815.128 853.333 768 853.333 682.667 815.128 682.667 768s38.205-85.333 85.333-85.333z m0-256c47.128 0 85.333 38.205 85.333 85.333S815.128 597.333 768 597.333 682.667 559.128 682.667 512s38.205-85.333 85.333-85.333z" /></svg>