<?xml version="1.0" standalone="no"?><!DOCTYPE svg PUBLIC "-//W3C//DTD SVG 1.1//EN" "http://www.w3.org/Graphics/SVG/1.1/DTD/svg11.dtd"><svg class="icon" width="200px" height="200.00px" viewBox="0 0 1024 1024" version="1.1" xmlns="http://www.w3.org/2000/svg"><path fill="#505F79" d="M268.497 464.335L464.46 268.37c16.495-16.495 43.239-16.495 59.734 0 16.494 16.495 16.494 43.239 0 59.734l-166.4 166.4 166.4 166.4c16.494 16.494 16.494 43.238 0 59.733-16.495 16.495-43.239 16.495-59.734 0L268.497 524.674c-16.663-16.662-16.663-43.677 0-60.34z m213.333 0L677.794 268.37c16.494-16.495 43.238-16.495 59.733 0 16.495 16.495 16.495 43.239 0 59.734l-166.4 166.4 166.4 166.4c16.495 16.494 16.495 43.238 0 59.733-16.495 16.495-43.239 16.495-59.733 0L481.83 524.674c-16.662-16.662-16.662-43.677 0-60.34z"  /></svg>