<?xml version="1.0" standalone="no"?><!DOCTYPE svg PUBLIC "-//W3C//DTD SVG 1.1//EN" "http://www.w3.org/Graphics/SVG/1.1/DTD/svg11.dtd"><svg class="icon" width="200px" height="200.00px" viewBox="0 0 1024 1024" version="1.1" xmlns="http://www.w3.org/2000/svg"><path fill="#2c2c2c" d="M803.592 724.75c-17.4 50.027-64.958 85.917-120.925 85.917S579.14 774.777 561.74 724.75c-2.299 0.384-4.66 0.583-7.068 0.583H170.66c-23.56 0-42.66-19.097-42.66-42.666C128 659.103 147.108 640 170.66 640h384.013c2.408 0 4.77 0.2 7.068 0.583 17.4-50.027 64.959-85.916 120.926-85.916s103.526 35.889 120.925 85.916c2.301-0.383 4.664-0.583 7.075-0.583h42.666C876.898 640 896 659.097 896 682.667c0 23.564-19.094 42.666-42.667 42.666h-42.666c-2.41 0-4.774-0.2-7.075-0.583zM462.26 383.417c-17.4 50.027-64.959 85.916-120.926 85.916s-103.526-35.889-120.925-85.916c-2.301 0.383-4.664 0.583-7.075 0.583h-42.666C147.102 384 128 364.903 128 341.333c0-23.564 19.094-42.666 42.667-42.666h42.666c2.41 0 4.774 0.2 7.075 0.583 17.4-50.027 64.958-85.917 120.925-85.917s103.526 35.89 120.926 85.917a42.923 42.923 0 0 1 7.068-0.583H853.34c23.56 0 42.66 19.097 42.66 42.666C896 364.897 876.892 384 853.34 384H469.327c-2.408 0-4.77-0.2-7.068-0.583z m263.074 299.25c0-23.583-19.084-42.667-42.666-42.667C659.084 640 640 659.084 640 682.667c0 23.582 19.084 42.666 42.667 42.666 23.582 0 42.666-19.084 42.666-42.666zM384 341.333c0-23.582-19.084-42.666-42.667-42.666-23.582 0-42.666 19.084-42.666 42.666 0 23.583 19.084 42.667 42.666 42.667C364.916 384 384 364.916 384 341.333z" /></svg>