<?xml version="1.0" standalone="no"?><!DOCTYPE svg PUBLIC "-//W3C//DTD SVG 1.1//EN" "http://www.w3.org/Graphics/SVG/1.1/DTD/svg11.dtd"><svg class="icon" width="200px" height="200.00px" viewBox="0 0 1024 1024" version="1.1" xmlns="http://www.w3.org/2000/svg"><path fill="#2c2c2c" d="M298.667 213.333H384c47.128 0 85.333 38.205 85.333 85.334V384c0 47.128-38.205 85.333-85.333 85.333h-85.333c-47.129 0-85.334-38.205-85.334-85.333v-85.333c0-47.129 38.205-85.334 85.334-85.334z m0 341.334H384c47.128 0 85.333 38.205 85.333 85.333v85.333c0 47.129-38.205 85.334-85.333 85.334h-85.333c-47.129 0-85.334-38.205-85.334-85.334V640c0-47.128 38.205-85.333 85.334-85.333zM640 213.333h85.333c47.129 0 85.334 38.205 85.334 85.334V384c0 47.128-38.205 85.333-85.334 85.333H640c-47.128 0-85.333-38.205-85.333-85.333v-85.333c0-47.129 38.205-85.334 85.333-85.334z m0 341.334h85.333c47.129 0 85.334 38.205 85.334 85.333v85.333c0 47.129-38.205 85.334-85.334 85.334H640c-47.128 0-85.333-38.205-85.333-85.334V640c0-47.128 38.205-85.333 85.333-85.333z" /></svg>