<?xml version="1.0" standalone="no"?><!DOCTYPE svg PUBLIC "-//W3C//DTD SVG 1.1//EN" "http://www.w3.org/Graphics/SVG/1.1/DTD/svg11.dtd"><svg class="icon" width="200px" height="200.00px" viewBox="0 0 1024 1024" version="1.1" xmlns="http://www.w3.org/2000/svg"><path fill="#505F79" d="M213.333 213.333V384H384V213.333H213.333zM170.667 128h256c23.564 0 42.666 19.103 42.666 42.667v256c0 23.564-19.102 42.666-42.666 42.666h-256c-23.564 0-42.667-19.102-42.667-42.666v-256C128 147.103 147.103 128 170.667 128zM256 256h85.333v85.333H256V256zM213.333 640v170.667H384V640H213.333z m-42.666-85.333h256c23.564 0 42.666 19.102 42.666 42.666v256c0 23.564-19.102 42.667-42.666 42.667h-256C147.103 896 128 876.897 128 853.333v-256c0-23.564 19.103-42.666 42.667-42.666z m85.333 128h85.333V768H256v-85.333zM640 213.333V384h170.667V213.333H640zM597.333 128h256C876.897 128 896 147.103 896 170.667v256c0 23.564-19.103 42.666-42.667 42.666h-256c-23.564 0-42.666-19.102-42.666-42.666v-256c0-23.564 19.102-42.667 42.666-42.667z m85.334 128H768v85.333h-85.333V256zM853.333 810.667c23.564 0 42.667 19.102 42.667 42.666C896 876.897 876.897 896 853.333 896s-42.666-19.103-42.666-42.667 19.102-42.666 42.666-42.666z m-128 0c23.564 0 42.667 19.102 42.667 42.666C768 876.897 748.897 896 725.333 896s-42.666-19.103-42.666-42.667 19.102-42.666 42.666-42.666zM682.667 640H640v213.333C640 876.897 620.897 896 597.333 896s-42.666-19.103-42.666-42.667v-256c0-23.564 19.102-42.666 42.666-42.666h128c23.564 0 42.667 19.102 42.667 42.666v85.334h42.667v-85.334c0-23.564 19.102-42.666 42.666-42.666 23.564 0 42.667 19.102 42.667 42.666v128C896 748.897 876.897 768 853.333 768h-128c-23.564 0-42.666-19.103-42.666-42.667V640z"  /></svg>