<?xml version="1.0" standalone="no"?><!DOCTYPE svg PUBLIC "-//W3C//DTD SVG 1.1//EN" "http://www.w3.org/Graphics/SVG/1.1/DTD/svg11.dtd"><svg class="icon" width="200px" height="200.00px" viewBox="0 0 1024 1024" version="1.1" xmlns="http://www.w3.org/2000/svg"><path fill="#2c2c2c" d="M512 896c-212.077 0-384-171.923-384-384s171.923-384 384-384 384 171.923 384 384-171.923 384-384 384zM341.333 426.667c0 0.845 0.055 2.1 0.164 3.764 1.908 21.791 20.22 38.902 42.503 38.902 23.164 0 42.036-18.49 42.682-41.509-0.043-47.104 38.212-86.485 85.316-86.485 47.061 0 85.333 38.272 85.333 85.333 0 47.019-38.272 85.334-85.333 85.334-23.04 0-41.899 18.816-42.24 42.112v85.888c0 23.552 19.114 42.666 42.666 42.666 23.595 0 42.667-19.114 42.667-42.666v-33.323c0-9.259 6.187-17.024 14.89-20.139 77.355-27.989 128.94-109.653 107.99-200.49-14.208-61.568-64.299-111.488-125.91-125.483-111.68-25.432-210.728 58.739-210.728 166.096z m170.667 384c23.552 0 42.667-19.115 42.667-42.667 0-23.552-19.115-42.667-42.667-42.667-23.552 0-42.667 19.115-42.667 42.667 0 23.552 19.115 42.667 42.667 42.667z" /></svg>