<?xml version="1.0" standalone="no"?><!DOCTYPE svg PUBLIC "-//W3C//DTD SVG 1.1//EN" "http://www.w3.org/Graphics/SVG/1.1/DTD/svg11.dtd"><svg t="1551162223823" class="icon" style="" viewBox="0 0 1024 1024" version="1.1" xmlns="http://www.w3.org/2000/svg" p-id="1534" xmlns:xlink="http://www.w3.org/1999/xlink" width="200" height="200"><defs><style type="text/css"></style></defs><path d="M597.333 512c70.693 0 128 57.308 128 128v153.6A384 384 0 0 1 465.067 896a386.987 386.987 0 0 1-251.734-98.133V640c0-70.692 57.308-128 128-128h256z m-128-384C563.59 128 640 204.41 640 298.667c0 94.256-76.41 170.666-170.667 170.666-94.256 0-170.666-76.41-170.666-170.666 0-94.257 76.41-170.667 170.666-170.667z m238.935 324.265l93.865-125.154V213.338c0-23.566 19.103-42.671 42.667-42.671 23.57 0 42.667 19.101 42.667 42.664v99.56c0 23.553-11.462 57.947-25.601 76.799l-85.332 113.776c-14.136 18.848-40.883 22.672-59.734 8.534-18.855-14.142-22.671-40.883-8.532-59.735z" p-id="1535"></path></svg>