<?xml version="1.0" standalone="no"?><!DOCTYPE svg PUBLIC "-//W3C//DTD SVG 1.1//EN" "http://www.w3.org/Graphics/SVG/1.1/DTD/svg11.dtd"><svg class="icon" width="200px" height="200.00px" viewBox="0 0 1024 1024" version="1.1" xmlns="http://www.w3.org/2000/svg"><path fill="#505F79" d="M701.252 643.636l168.163 171.097c16.517 16.806 16.284 43.82-0.522 60.338-16.806 16.518-43.82 16.284-60.338-0.522L640.548 703.611C586.973 744.032 520.285 768 448 768c-176.731 0-320-143.269-320-320s143.269-320 320-320 320 143.269 320 320c0 73.68-24.902 141.545-66.748 195.636zM448 682.666c129.603 0 234.667-105.063 234.667-234.666S577.603 213.333 448 213.333 213.333 318.397 213.333 448 318.397 682.667 448 682.667z"  /></svg>