<?xml version="1.0" standalone="no"?><!DOCTYPE svg PUBLIC "-//W3C//DTD SVG 1.1//EN" "http://www.w3.org/Graphics/SVG/1.1/DTD/svg11.dtd"><svg class="icon" width="200px" height="200.00px" viewBox="0 0 1024 1024" version="1.1" xmlns="http://www.w3.org/2000/svg"><path fill="#2c2c2c" d="M512 128h298.92c46.914 0 85.08 38.111 85.08 85.124v597.752C896 857.915 857.908 896 810.92 896H512v-85.333h298.667V213.333H512V128zM276.93 554.667l51.446 51.931c17.277 17.343 17.277 45.608 0 62.995-17.233 17.432-45.203 17.432-62.48 0L140.89 543.514c-17.188-17.432-17.188-45.608 0-63.04l125.005-126.123c8.66-8.693 19.972-13.018 31.284-13.018 11.267 0 22.623 4.325 31.196 13.018 17.277 17.432 17.277 45.653 0 63.04l-51.458 51.942h406.755c22.996 0 41.66 19.148 41.66 42.688 0 23.54-18.664 42.646-41.66 42.646H276.929z" /></svg>