<?xml version="1.0" standalone="no"?><!DOCTYPE svg PUBLIC "-//W3C//DTD SVG 1.1//EN" "http://www.w3.org/Graphics/SVG/1.1/DTD/svg11.dtd"><svg class="icon" width="200px" height="200.00px" viewBox="0 0 1024 1024" version="1.1" xmlns="http://www.w3.org/2000/svg"><path fill="#2c2c2c" d="M298.667 213.333h426.666c47.129 0 85.334 38.205 85.334 85.334v426.666c0 47.129-38.205 85.334-85.334 85.334H298.667c-47.129 0-85.334-38.205-85.334-85.334V298.667c0-47.129 38.205-85.334 85.334-85.334zM341.333 640c-23.564 0-42.666 19.103-42.666 42.667s19.102 42.666 42.666 42.666h341.334c23.564 0 42.666-19.102 42.666-42.666 0-23.564-19.102-42.667-42.666-42.667H341.333z m0-170.667c-23.564 0-42.666 19.103-42.666 42.667s19.102 42.667 42.666 42.667h341.334c23.564 0 42.666-19.103 42.666-42.667s-19.102-42.667-42.666-42.667H341.333z m128-170.666c-23.564 0-42.666 19.102-42.666 42.666 0 23.564 19.102 42.667 42.666 42.667h213.334c23.564 0 42.666-19.103 42.666-42.667s-19.102-42.666-42.666-42.666H469.333z m-128 0c-23.564 0-42.666 19.102-42.666 42.666 0 23.564 19.102 42.667 42.666 42.667C364.897 384 384 364.897 384 341.333s-19.103-42.666-42.667-42.666z" /></svg>