<?xml version="1.0" standalone="no"?><!DOCTYPE svg PUBLIC "-//W3C//DTD SVG 1.1//EN" "http://www.w3.org/Graphics/SVG/1.1/DTD/svg11.dtd"><svg class="icon" width="200px" height="200.00px" viewBox="0 0 1024 1024" version="1.1" xmlns="http://www.w3.org/2000/svg"><path fill="#2c2c2c" d="M808.972 480H896v85.333h-90.082C783.891 687.53 687.53 783.891 565.333 805.918V896H480v-87.028c-132.198-14.08-238.624-114.414-261.918-243.639H128V480h87.028C229.875 340.611 340.61 229.875 480 215.028V128h85.333v90.082C694.558 241.376 794.891 347.802 808.973 480z m-90.36 85.333H640V480h82.95c-12.781-84.966-75.672-153.521-157.617-174.612V384H480v-82.95C387.798 314.92 314.92 387.799 301.05 480H384v85.333h-78.612C326.478 647.278 395.034 710.17 480 722.95V640h85.333v78.612c74.966-19.294 133.985-78.313 153.28-153.279z" /></svg>