<?xml version="1.0" standalone="no"?><!DOCTYPE svg PUBLIC "-//W3C//DTD SVG 1.1//EN" "http://www.w3.org/Graphics/SVG/1.1/DTD/svg11.dtd"><svg class="icon" width="200px" height="200.00px" viewBox="0 0 1024 1024" version="1.1" xmlns="http://www.w3.org/2000/svg"><path fill="#2c2c2c" d="M545.185 512.008h-0.094c-54.94 0-99.461 44.658-99.461 99.745v93.159c-97.75 17.734-232.297-2.087-232.297-65.837V512.108c0-36.703 29.436-66.47 66.37-66.47h199.112c36.582 0 66.229 29.361 66.37 66.37z m99.556-14.23c-54.983 0-99.556-44.573-99.556-99.556s44.573-99.555 99.556-99.555 99.555 44.572 99.555 99.555c0 54.983-44.572 99.556-99.555 99.556z m-265.482-85.334c-54.983 0-99.555-44.572-99.555-99.555 0-54.983 44.572-99.556 99.555-99.556 54.983 0 99.556 44.573 99.556 99.556s-44.573 99.555-99.556 99.555z m99.556 199.104c0-36.651 29.705-66.363 66.37-66.363h199.112c36.655 0 66.37 29.713 66.37 66.367v123.78c0 100.446-331.852 100.446-331.852 0V611.548z" /></svg>