<?xml version="1.0" standalone="no"?><!DOCTYPE svg PUBLIC "-//W3C//DTD SVG 1.1//EN" "http://www.w3.org/Graphics/SVG/1.1/DTD/svg11.dtd"><svg class="icon" width="200px" height="200.00px" viewBox="0 0 1024 1024" version="1.1" xmlns="http://www.w3.org/2000/svg"><path fill="#505F79" d="M554.667 341.428V494.353l93.226 93.227c16.598 16.597 16.598 43.733 0 60.33-16.597 16.598-43.733 16.598-60.33 0L482.176 542.566c-7.893-7.765-12.843-18.474-12.843-30.378V341.52a42.892 42.892 0 0 1 0-0.188V256c0-23.564 19.103-42.667 42.667-42.667s42.667 19.103 42.667 42.667v85.428zM512 938.667C276.359 938.667 85.333 747.64 85.333 512 85.333 276.359 276.36 85.333 512 85.333c235.641 0 426.667 191.026 426.667 426.667 0 235.641-191.026 426.667-426.667 426.667z m0-85.334c188.513 0 341.333-152.82 341.333-341.333 0-188.513-152.82-341.333-341.333-341.333-188.513 0-341.333 152.82-341.333 341.333 0 188.513 152.82 341.333 341.333 341.333z"  /></svg>