<?xml version="1.0" standalone="no"?><!DOCTYPE svg PUBLIC "-//W3C//DTD SVG 1.1//EN" "http://www.w3.org/Graphics/SVG/1.1/DTD/svg11.dtd"><svg class="icon" width="200px" height="200.00px" viewBox="0 0 1024 1024" version="1.1" xmlns="http://www.w3.org/2000/svg"><path fill="#505F79" d="M552.15 192.731l302.734 592.706c22.16 43.387 0.631 78.563-48.09 78.563H217.25c-48.715 0-70.252-35.174-48.09-78.563L471.895 192.73c22.16-43.387 58.093-43.39 80.255 0z m-40.128 442.08c23.49 0 42.555-19.76 42.555-44.107v-220.54c0-24.347-19.065-44.107-42.555-44.107s-42.554 19.76-42.554 44.108v220.539c0 24.347 19.064 44.108 42.554 44.108z m0 132.324c23.49 0 42.555-19.76 42.555-44.108 0-24.347-19.065-44.108-42.555-44.108s-42.554 19.76-42.554 44.108c0 24.348 19.064 44.108 42.554 44.108z" /></svg>